<?xml version="1.0" encoding="UTF-8"?>
<svg xmlns:rdf="http://www.w3.org/1999/02/22-rdf-syntax-ns#" xmlns="http://www.w3.org/2000/svg" xmlns:cc="http://creativecommons.org/ns#" xmlns:xlink="http://www.w3.org/1999/xlink" xmlns:dc="http://purl.org/dc/elements/1.1/" id="svg2" viewBox="0 0 367.72 209.23" version="1.0">
  <defs id="defs4">
    <filter id="filter3380">
      <feGaussianBlur id="feGaussianBlur3382" stdDeviation="0.40388373"/>
    </filter>
    <linearGradient id="linearGradient2561" y2="-156.19" gradientUnits="userSpaceOnUse" x2="119.29" gradientTransform="translate(155.86 672.13)" y1="-332.62" x1="67.143">
      <stop id="stop3358" stop-color="#fff" offset="0"/>
      <stop id="stop3360" stop-color="#fff" stop-opacity="0" offset="1"/>
    </linearGradient>
  </defs>
  <g id="layer1" transform="translate(-181.19 -684.64)">
    <g id="g3141" transform="translate(8.9231 400.45)">
      <path id="path3762" d="m501.48 493.42l-296.71-0.36c-35.78-18.43-53.67-83.62 8.95-111.25-21.01-54.12 51.26-84.04 89.46-55.26 17.89-64.48 95.78-48.94 114.21 3.79 44.73-27.63 136.53 14.42 80.51 55.26 53.68 27.63 57.25 89.4 3.58 107.82z" fill="#8181d7"/>
      <path id="rect3342" filter="url(#filter3380)" d="m353.36 284.22c-21.64 0.34-42.08 13.13-50.19 42.34-38.21-28.78-110.45 1.13-89.44 55.25-52.09 22.99-48.47 71.46-25.19 97.72 184.02-2.14 205.67-101.69 323.63-108.84 19.97-35.17-55.53-64.59-94.78-40.34-10.08-28.84-37.93-46.54-64.03-46.13z" fill="url(#linearGradient2561)"/>
    </g>
  </g>
  <metadata>
    <rdf:RDF>
      <cc:Work>
        <dc:format>image/svg+xml</dc:format>
        <dc:type rdf:resource="http://purl.org/dc/dcmitype/StillImage"/>
        <cc:license rdf:resource="http://creativecommons.org/licenses/publicdomain/"/>
        <dc:publisher>
          <cc:Agent rdf:about="http://openclipart.org/">
            <dc:title>Openclipart</dc:title>
          </cc:Agent>
        </dc:publisher>
      </cc:Work>
      <cc:License rdf:about="http://creativecommons.org/licenses/publicdomain/">
        <cc:permits rdf:resource="http://creativecommons.org/ns#Reproduction"/>
        <cc:permits rdf:resource="http://creativecommons.org/ns#Distribution"/>
        <cc:permits rdf:resource="http://creativecommons.org/ns#DerivativeWorks"/>
      </cc:License>
    </rdf:RDF>
  </metadata>
</svg>